# xmcd
#
# Track frame offsets:
#	150
#	16974
#	38528
#	56814
#	77397
#	97852
#	114922
#	137926
#	156748
#	180770
#	200489
#	224264
#
# Disc length: 3203 seconds
#
# Revision: 0
# Processed by: cddbd v1.5.2PL0 Copyright (c) Steve Scherf et al.
# Submitted via: audiograbber 1.83.01
#
DISCID=950c810c
DTITLE=Garth Brooks - The Ultimate Collection - Turn It Up
DYEAR=2016
DGENRE=Country
TTITLE0=The Thunder Rolls
TTITLE1=That Summer
TTITLE2=You Wreck Me
TTITLE3=Why Ain't I Running
TTITLE4=Wrapped Up In You
TTITLE5=I'd Rather Have Nothing
TTITLE6=Allison Miranda
TTITLE7=Black Water
TTITLE8=Midnight Train
TTITLE9=Dixie Chicken
TTITLE10=Man Against Machine
TTITLE11=Two Pina Coladas
EXTD=
EXTT0=
EXTT1=
EXTT2=
EXTT3=
EXTT4=
EXTT5=
EXTT6=
EXTT7=
EXTT8=
EXTT9=
EXTT10=
EXTT11=
PLAYORDER=
